<?xml version="1.0" encoding="UTF-8" standalone="no"?>
<svg xmlns:dc="http://purl.org/dc/elements/1.1/" xmlns:cc="http://creativecommons.org/ns#" xmlns:rdf="http://www.w3.org/1999/02/22-rdf-syntax-ns#" xmlns:svg="http://www.w3.org/2000/svg" xmlns="http://www.w3.org/2000/svg" viewBox="0 0 346.66666 97.333336" height="97.333336" width="346.66666" xml:space="preserve" id="svg2" version="1.1"><metadata id="metadata8"><rdf:RDF><cc:Work rdf:about=""><dc:format>image/svg+xml</dc:format><dc:type rdf:resource="http://purl.org/dc/dcmitype/StillImage"/></cc:Work></rdf:RDF></metadata><defs id="defs6"/><g transform="matrix(1.3333333,0,0,-1.3333333,0,97.333333)" id="g10"><g transform="scale(0.1)" id="g12"><path id="path14" style="fill:none;stroke:#ffffff;stroke-width:25.49230003;stroke-linecap:butt;stroke-linejoin:miter;stroke-miterlimit:4;stroke-dasharray:none;stroke-opacity:1" d="m 12.7461,12.7461 h 444.258 v 704.508 H 12.7461 Z"/><path id="path16" style="fill:#ffffff;fill-opacity:1;fill-rule:nonzero;stroke:none" d="M 1051.65,438.453 957.516,214.758 h 40.297 l 23.787,61.055 h 81.91 l 21.47,-61.055 h 52.19 l -86.87,223.695 z m -17.83,-135.164 c 10.9,29.399 21.79,56.543 31.38,91.066 h 0.65 c 10.91,-34.523 20.81,-61.667 30.72,-91.066 h -62.75 v 0"/><path id="path18" style="fill:#ffffff;fill-opacity:1;fill-rule:nonzero;stroke:none" d="m 1765.52,438.453 h -54.17 c -26.43,-54.957 -68.05,-141.242 -78.94,-171.262 h -0.67 c -8.92,28.754 -47.22,116.305 -71,171.262 h -57.49 V 214.758 h 37.34 V 389.25 h 0.65 c 24.12,-62.305 49.23,-118.551 74,-174.492 h 25.11 c 26.07,55.941 52.5,112.187 77.94,174.492 h 0.65 V 214.758 h 46.58 v 223.695"/><path id="path20" style="fill:#ffffff;fill-opacity:1;fill-rule:nonzero;stroke:none" d="m 1920.84,438.453 -94.13,-223.695 h 40.3 l 23.78,61.055 h 81.92 l 21.46,-61.055 h 52.19 L 1959.5,438.453 Z M 1903,303.289 c 10.9,29.399 21.81,56.543 31.39,91.066 h 0.65 c 10.9,-34.523 20.82,-61.667 30.73,-91.066 H 1903 v 0"/><path id="path22" style="fill:#ffffff;fill-opacity:1;fill-rule:nonzero;stroke:none" d="m 2310.4,438.453 h -37.34 V 278.996 h -0.65 c -43.58,57.524 -87.53,108.328 -131.8,159.457 h -34.02 V 214.758 h 37.32 V 375.18 h 0.65 c 43.62,-57.828 87.87,-108.957 132.13,-160.422 h 33.71 v 223.695"/><path id="path24" style="fill:#ffffff;fill-opacity:1;fill-rule:nonzero;stroke:none" d="m 2600,438.453 h -37.32 V 278.996 h -0.65 c -43.62,57.524 -87.53,108.328 -131.8,159.457 H 2396.2 V 214.758 h 37.33 V 375.18 h 0.65 c 43.6,-57.828 87.87,-108.957 132.13,-160.422 H 2600 v 223.695"/><path id="path26" style="fill:#ffffff;fill-opacity:1;fill-rule:nonzero;stroke:none" d="M 762.941,438.453 C 744.445,380.941 725.957,323.734 707.785,258.57 h -0.668 c -15.187,66.125 -30.383,121.461 -45.906,179.95 l -45.922,0.515 64.418,-224.277 h 47.895 c 16.843,53.07 33.351,106.422 49.871,167.129 h 0.672 C 794.988,321.18 812.16,267.828 829.336,214.758 h 47.566 l 63.125,224.277 -37.984,-0.515 C 886.188,380.031 872.277,324.695 856.754,258.57 h -0.66 c -18.168,65.164 -36.989,122.371 -55.492,179.883 h -37.661 v 0"/><path id="path28" style="fill:#ffffff;fill-opacity:1;fill-rule:nonzero;stroke:none" d="m 1440.15,213.254 -86.71,131.539 59.81,93.66 -42.87,0.598 -38.09,-64.547 -38.38,64.547 -50.84,-0.598 61.82,-97.805 -79.49,-127.035 46.15,-0.359 55.79,95.754 58.72,-95.613 54.09,-0.141"/><path id="path30" style="fill:#ffffff;fill-opacity:1;fill-rule:nonzero;stroke:none" d="M 13.0859,439.043 H 65.6094 L 196.074,213.695 100.176,50.6992 13.0859,196.754 v 242.289"/><path id="path32" style="fill:#ffffff;fill-opacity:1;fill-rule:nonzero;stroke:none" d="M 90.3477,439.043 H 278.758 L 408.547,213.695 312.645,50.6992 90.3477,439.043"/><path id="path34" style="fill:#ffffff;fill-opacity:1;fill-rule:nonzero;stroke:none" d="m 345.855,373.641 c 0,43.039 34.563,77.261 77.262,77.261 12.199,0 23.719,-3.05 33.887,-7.793 V 304.852 c -10.168,-4.747 -21.688,-7.793 -33.887,-7.793 -42.699,0 -77.262,34.222 -77.262,76.582"/></g></g></svg>